<?xml version="1.0" encoding="utf-8" standalone="no"?>
<!DOCTYPE svg PUBLIC "-//W3C//DTD SVG 1.1//EN"
  "http://www.w3.org/Graphics/SVG/1.1/DTD/svg11.dtd">
<svg xmlns:xlink="http://www.w3.org/1999/xlink" width="540pt" height="324pt" viewBox="0 0 540 324" xmlns="http://www.w3.org/2000/svg" version="1.1">
 <metadata>
  <rdf:RDF xmlns:dc="http://purl.org/dc/elements/1.1/" xmlns:cc="http://creativecommons.org/ns#" xmlns:rdf="http://www.w3.org/1999/02/22-rdf-syntax-ns#">
   <cc:Work>
    <dc:type rdf:resource="http://purl.org/dc/dcmitype/StillImage"/>
    <dc:date>2026-09-06T22:35:08.064184</dc:date>
    <dc:format>image/svg+xml</dc:format>
    <dc:creator>
     <cc:Agent>
      <dc:title>Matplotlib v3.10.8, https://matplotlib.org/</dc:title>
     </cc:Agent>
    </dc:creator>
   </cc:Work>
  </rdf:RDF>
 </metadata>
 <defs>
  <style type="text/css">*{stroke-linejoin: round; stroke-linecap: butt}</style>
 </defs>
 <g id="figure_1">
  <g id="patch_1">
   <path d="M 0 324 
L 540 324 
L 540 0 
L 0 0 
z
" style="fill: #ffffff"/>
  </g>
  <g id="axes_1">
   <g id="patch_2">
    <path d="M 70.2 152.28 
L 486 152.28 
L 486 81 
L 70.2 81 
z
" style="fill: #ffffff"/>
   </g>
   <g id="matplotlib.axis_1">
    <g id="xtick_1">
     <g id="line2d_1">
      <defs>
       <path id="m50d6b81bb1" d="M 0 0 
L 0 3.5 
" style="stroke: #000000; stroke-width: 0.8"/>
      </defs>
      <g>
       <use xlink:href="#m50d6b81bb1" x="70.2" y="152.28" style="stroke: #000000; stroke-width: 0.8"/>
      </g>
     </g>
     <g id="text_1">
      <text style="font-size: 10px; font-family: 'Times New Roman'; text-anchor: middle" x="70.2" y="166.22375" transform="rotate(-0 70.2 166.22375)">75</text>
     </g>
    </g>
    <g id="xtick_2">
     <g id="line2d_2">
      <g>
       <use xlink:href="#m50d6b81bb1" x="153.36" y="152.28" style="stroke: #000000; stroke-width: 0.8"/>
      </g>
     </g>
     <g id="text_2">
      <text style="font-size: 10px; font-family: 'Times New Roman'; text-anchor: middle" x="153.36" y="166.22375" transform="rotate(-0 153.36 166.22375)">80</text>
     </g>
    </g>
    <g id="xtick_3">
     <g id="line2d_3">
      <g>
       <use xlink:href="#m50d6b81bb1" x="236.52" y="152.28" style="stroke: #000000; stroke-width: 0.8"/>
      </g>
     </g>
     <g id="text_3">
      <text style="font-size: 10px; font-family: 'Times New Roman'; text-anchor: middle" x="236.52" y="166.22375" transform="rotate(-0 236.52 166.22375)">85</text>
     </g>
    </g>
    <g id="xtick_4">
     <g id="line2d_4">
      <g>
       <use xlink:href="#m50d6b81bb1" x="319.68" y="152.28" style="stroke: #000000; stroke-width: 0.8"/>
      </g>
     </g>
     <g id="text_4">
      <text style="font-size: 10px; font-family: 'Times New Roman'; text-anchor: middle" x="319.68" y="166.22375" transform="rotate(-0 319.68 166.22375)">90</text>
     </g>
    </g>
    <g id="xtick_5">
     <g id="line2d_5">
      <g>
       <use xlink:href="#m50d6b81bb1" x="402.84" y="152.28" style="stroke: #000000; stroke-width: 0.8"/>
      </g>
     </g>
     <g id="text_5">
      <text style="font-size: 10px; font-family: 'Times New Roman'; text-anchor: middle" x="402.84" y="166.22375" transform="rotate(-0 402.84 166.22375)">95</text>
     </g>
    </g>
    <g id="xtick_6">
     <g id="line2d_6">
      <g>
       <use xlink:href="#m50d6b81bb1" x="486" y="152.28" style="stroke: #000000; stroke-width: 0.8"/>
      </g>
     </g>
     <g id="text_6">
      <text style="font-size: 10px; font-family: 'Times New Roman'; text-anchor: middle" x="486" y="166.22375" transform="rotate(-0 486 166.22375)">100</text>
     </g>
    </g>
    <g id="text_7">
     <text style="font-size: 10px; font-family: 'Times New Roman'; text-anchor: middle" x="278.1" y="179.306562" transform="rotate(-0 278.1 179.306562)">Biopsies with endoneurial capillary C5b-9 deposition (%)</text>
    </g>
   </g>
   <g id="matplotlib.axis_2"/>
   <g id="LineCollection_1">
    <path d="M 238.963897 116.64 
L 454.859548 116.64 
" clip-path="url(#p10c389cce5)" style="fill: none; stroke: #158795; stroke-width: 2"/>
   </g>
   <g id="line2d_7">
    <defs>
     <path id="m7a8fbc1922" d="M 0 3.5 
C 0.928211 3.5 1.81853 3.131218 2.474874 2.474874 
C 3.131218 1.81853 3.5 0.928211 3.5 0 
C 3.5 -0.928211 3.131218 -1.81853 2.474874 -2.474874 
C 1.81853 -3.131218 0.928211 -3.5 0 -3.5 
C -0.928211 -3.5 -1.81853 -3.131218 -2.474874 -2.474874 
C -3.131218 -1.81853 -3.5 -0.928211 -3.5 0 
C -3.5 0.928211 -3.131218 1.81853 -2.474874 2.474874 
C -1.81853 3.131218 -0.928211 3.5 0 3.5 
z
" style="stroke: #158795"/>
    </defs>
    <g clip-path="url(#p10c389cce5)">
     <use xlink:href="#m7a8fbc1922" x="395.28" y="116.64" style="fill: #158795; stroke: #158795"/>
    </g>
   </g>
   <g id="patch_3">
    <path d="M 70.2 152.28 
L 486 152.28 
" style="fill: none; stroke: #000000; stroke-width: 0.8; stroke-linejoin: miter; stroke-linecap: square"/>
   </g>
  </g>
  <g id="text_8">
   <text style="font-weight: 700; font-size: 15px; font-family: 'Times New Roman'; text-anchor: start" x="43.2" y="32.4" transform="rotate(-0 43.2 32.4)">Published CIDP nerve evidence</text>
  </g>
  <g id="text_9">
   <text style="font-size: 12px; font-family: 'Times New Roman'; text-anchor: start" x="43.2" y="64.8" transform="rotate(-0 43.2 64.8)">52/55 biopsies: 94.5% (Wilson 95% CI 85.1–98.1%)</text>
  </g>
  <g id="text_10">
   <text style="font-weight: 700; font-size: 12px; font-family: 'Times New Roman'; text-anchor: start" x="43.2" y="213.84" transform="rotate(-0 43.2 213.84)">Additional source observations</text>
  </g>
  <g id="text_11">
   <text style="font-size: 11px; font-family: 'Times New Roman'; text-anchor: start" x="43.2" y="239.76" transform="rotate(-0 43.2 239.76)">Increased C3 and C6 abundance in nerve proteomics</text>
  </g>
  <g id="text_12">
   <text style="font-size: 11px; font-family: 'Times New Roman'; text-anchor: start" x="43.2" y="262.44" transform="rotate(-0 43.2 262.44)">CD68-positive macrophages and CD8-positive T cells</text>
  </g>
  <g id="text_13">
   <text style="font-size: 9.5px; font-family: 'Times New Roman'; text-anchor: start" x="43.2" y="301.32" transform="rotate(-0 43.2 301.32)">Source: Stascheit et al. 2025; DOI: 10.1007/s00401-025-02936-w</text>
  </g>
 </g>
 <defs>
  <clipPath id="p10c389cce5">
   <rect x="70.2" y="81" width="415.8" height="71.28"/>
  </clipPath>
 </defs>
</svg>
